<?xml version="1.0" encoding="UTF-8"?>
<!DOCTYPE svg PUBLIC "-//W3C//DTD SVG 1.1//EN" "http://www.w3.org/Graphics/SVG/1.1/DTD/svg11.dtd">
<!-- Creator: CorelDRAW X7 -->
<svg xmlns="http://www.w3.org/2000/svg" xml:space="preserve" width="50.7998mm" height="12.6998mm" version="1.1" style="shape-rendering:geometricPrecision; text-rendering:geometricPrecision; image-rendering:optimizeQuality; fill-rule:evenodd; clip-rule:evenodd"
viewBox="0 0 5080 1270"
 xmlns:xlink="http://www.w3.org/1999/xlink">
 <defs>
  <style type="text/css">
   <![CDATA[
    .fil0 {fill:none}
    .fil2 {fill:#0033AB}
    .fil1 {fill:#FCC917}
    .fil6 {fill:#FEFEFE;fill-rule:nonzero}
    .fil4 {fill:#E31E24;fill-rule:nonzero}
    .fil5 {fill:#0033AB;fill-rule:nonzero}
    .fil3 {fill:#FCC917;fill-rule:nonzero}
   ]]>
  </style>
 </defs>
 <g id="Слой_x0020_1">
  <metadata id="CorelCorpID_0Corel-Layer"/>
  <g id="_471964128">
   <polygon class="fil0" points="5069,1259 11,1259 11,6 5069,6 "/>
   <rect class="fil1" x="2514" y="70" width="1242" height="1128"/>
   <rect class="fil2" x="3756" y="70" width="1248" height="1128"/>
   <path class="fil3" d="M3735 480c0,-88 25,-159 76,-215 51,-55 118,-83 201,-83 87,0 155,27 204,80 48,53 72,126 72,218 0,92 -24,165 -74,219 -49,54 -116,82 -202,82 -88,0 -155,-28 -204,-83 -49,-54 -73,-127 -73,-218zm140 0c0,127 46,190 137,190 42,0 75,-16 100,-49 24,-33 36,-80 36,-141 0,-125 -45,-187 -136,-187 -42,0 -75,16 -100,49 -25,33 -37,79 -37,138z"/>
   <path id="1" class="fil3" d="M4519 755l0 240 -134 0 0 -802 134 0 0 39c34,-33 76,-50 125,-50 184,0 275,102 275,304 0,94 -25,167 -76,218 -51,51 -120,77 -208,77 -42,0 -81,-9 -116,-26zm0 -420l0 303c25,19 53,29 86,29 62,0 107,-15 134,-44 27,-30 40,-77 40,-140 0,-69 -13,-116 -40,-144 -27,-28 -71,-42 -133,-42 -33,0 -61,12 -87,38z"/>
   <path class="fil4" d="M99 593c28,-1 51,-8 69,-23 17,-14 29,-34 35,-59 6,-25 9,-67 9,-128 1,-60 1,-100 3,-120 3,-30 9,-54 18,-73 9,-18 20,-33 33,-44 13,-11 30,-20 50,-26 14,-3 36,-5 67,-5l30 0 0 86 -16 0c-38,0 -62,7 -75,20 -12,14 -18,44 -18,91 0,95 -2,155 -6,180 -6,39 -18,69 -34,90 -15,21 -40,39 -75,56 41,16 70,42 88,76 18,34 27,90 27,168 0,70 1,112 1,126 3,24 11,41 22,51 12,10 35,15 69,15l17 0 0 86 -30 0c-36,0 -61,-3 -77,-9 -23,-8 -43,-22 -58,-40 -15,-19 -25,-43 -29,-71 -5,-29 -7,-76 -8,-141 0,-65 -3,-110 -9,-135 -6,-25 -17,-45 -35,-59 -17,-15 -40,-22 -68,-23l0 -89z"/>
   <path class="fil5" d="M2637 999l53 -128c56,40 112,59 167,59 84,0 126,-29 126,-88 0,-27 -10,-53 -30,-78 -20,-25 -61,-53 -123,-84 -62,-31 -104,-56 -125,-76 -22,-20 -38,-44 -50,-72 -11,-27 -17,-58 -17,-91 0,-62 23,-114 68,-155 46,-41 105,-62 176,-62 93,0 162,18 206,53l-44 123c-50,-36 -103,-54 -159,-54 -33,0 -59,9 -77,26 -18,18 -27,40 -27,68 0,46 51,94 154,144 54,26 93,51 117,73 24,22 42,48 54,78 13,29 19,62 19,98 0,66 -26,119 -78,162 -51,42 -120,63 -207,63 -75,0 -143,-20 -203,-59z"/>
   <path id="1" class="fil5" d="M3625 1044l0 -363c0,-36 -12,-65 -34,-87 -23,-22 -53,-34 -90,-34 -23,0 -46,7 -69,19 -23,12 -40,26 -50,42l0 423 -140 0 0 -809 140 -33 0 290c36,-33 85,-49 147,-49 74,0 131,21 172,62 41,41 61,99 61,176l0 363 -137 0z"/>
   <path class="fil6" d="M776 757l178 0 -88 -213 -90 213zm-254 215l346 -699 10 0 338 699 -169 0 -43 -99 -275 0 -44 99 -163 0z"/>
   <path id="1" class="fil6" d="M1451 419l-22 0 0 181 29 0c41,0 72,-8 93,-24 22,-16 33,-38 33,-68 0,-31 -11,-53 -32,-68 -21,-14 -55,-21 -101,-21zm-184 553l0 -678 174 0c54,0 96,4 128,12 31,8 59,21 84,39 25,19 44,42 58,69 14,28 21,57 21,88 0,68 -24,123 -73,163 -49,40 -115,60 -199,60 -8,0 -15,0 -19,0 -5,0 -9,-1 -12,-1l0 248 -162 0z"/>
   <polygon id="2" class="fil6" points="1834,972 1834,294 1996,294 1996,972 "/>
   <path class="fil4" d="M2439 596l0 89c-28,1 -51,9 -68,23 -18,14 -30,34 -36,59 -5,25 -9,67 -9,128 0,60 -1,100 -3,119 -3,31 -9,55 -18,74 -9,18 -20,33 -33,44 -13,11 -30,19 -50,25 -14,4 -36,6 -68,6l-30 0 0 -86 17 0c38,0 62,-7 75,-20 12,-14 18,-44 18,-92 0,-90 2,-147 5,-172 5,-40 17,-72 35,-96 17,-24 42,-43 74,-56 -42,-20 -72,-46 -89,-79 -17,-33 -26,-88 -26,-166 0,-71 0,-113 -1,-127 -3,-24 -10,-41 -22,-51 -11,-9 -35,-14 -69,-14l-17 0 0 -86 30 0c36,0 62,3 78,9 23,8 42,21 57,40 15,19 25,43 30,71 4,29 7,76 7,141 0,65 4,111 9,135 6,25 18,45 36,59 17,15 40,22 68,23z"/>
  </g>
 </g>
</svg>
